<mxfile host="app.diagrams.net" modified="2022-12-13T02:15:28.985Z" agent="5.0 (Windows NT 10.0; Win64; x64) AppleWebKit/537.36 (KHTML, like Gecko) Chrome/108.0.0.0 Safari/537.36" version="20.6.2" etag="15h5MrHLq_tVjFswp9JO" type="github">
  <diagram id="zPBJ6VJD9SpHp4VNFkK6" name="第 1 页">
    <mxGraphModel dx="1955" dy="730" grid="1" gridSize="10" guides="1" tooltips="1" connect="1" arrows="1" fold="1" page="1" pageScale="1" pageWidth="827" pageHeight="1169" math="0" shadow="0">
      <root>
        <mxCell id="0" />
        <mxCell id="1" parent="0" />
        <mxCell id="dGRvfFARYx4jsjMMNbVP-5" style="edgeStyle=orthogonalEdgeStyle;rounded=0;orthogonalLoop=1;jettySize=auto;html=1;exitX=1;exitY=0.5;exitDx=0;exitDy=0;entryX=0;entryY=0.5;entryDx=0;entryDy=0;" edge="1" parent="1" source="dGRvfFARYx4jsjMMNbVP-1" target="dGRvfFARYx4jsjMMNbVP-2">
          <mxGeometry relative="1" as="geometry" />
        </mxCell>
        <mxCell id="dGRvfFARYx4jsjMMNbVP-1" value="视频流" style="rounded=0;whiteSpace=wrap;html=1;" vertex="1" parent="1">
          <mxGeometry x="30" y="320" width="120" height="60" as="geometry" />
        </mxCell>
        <mxCell id="dGRvfFARYx4jsjMMNbVP-9" style="edgeStyle=orthogonalEdgeStyle;rounded=0;orthogonalLoop=1;jettySize=auto;html=1;exitX=1;exitY=0.5;exitDx=0;exitDy=0;entryX=0;entryY=0.5;entryDx=0;entryDy=0;" edge="1" parent="1" source="dGRvfFARYx4jsjMMNbVP-2" target="dGRvfFARYx4jsjMMNbVP-3">
          <mxGeometry relative="1" as="geometry" />
        </mxCell>
        <mxCell id="dGRvfFARYx4jsjMMNbVP-2" value="图像增强" style="rounded=0;whiteSpace=wrap;html=1;" vertex="1" parent="1">
          <mxGeometry x="190" y="320" width="120" height="60" as="geometry" />
        </mxCell>
        <mxCell id="dGRvfFARYx4jsjMMNbVP-8" style="edgeStyle=orthogonalEdgeStyle;rounded=0;orthogonalLoop=1;jettySize=auto;html=1;exitX=1;exitY=0.5;exitDx=0;exitDy=0;entryX=0;entryY=0.5;entryDx=0;entryDy=0;" edge="1" parent="1" source="dGRvfFARYx4jsjMMNbVP-3" target="dGRvfFARYx4jsjMMNbVP-4">
          <mxGeometry relative="1" as="geometry" />
        </mxCell>
        <mxCell id="dGRvfFARYx4jsjMMNbVP-3" value="目标检测和跟踪算法" style="rounded=0;whiteSpace=wrap;html=1;" vertex="1" parent="1">
          <mxGeometry x="340" y="320" width="120" height="60" as="geometry" />
        </mxCell>
        <mxCell id="dGRvfFARYx4jsjMMNbVP-19" style="edgeStyle=orthogonalEdgeStyle;rounded=0;orthogonalLoop=1;jettySize=auto;html=1;exitX=1;exitY=0.5;exitDx=0;exitDy=0;entryX=0;entryY=0.5;entryDx=0;entryDy=0;" edge="1" parent="1" source="dGRvfFARYx4jsjMMNbVP-4">
          <mxGeometry relative="1" as="geometry">
            <mxPoint x="670" y="350" as="targetPoint" />
          </mxGeometry>
        </mxCell>
        <mxCell id="dGRvfFARYx4jsjMMNbVP-4" value="钻杆运动轨迹分析算法" style="rounded=0;whiteSpace=wrap;html=1;" vertex="1" parent="1">
          <mxGeometry x="510" y="320" width="120" height="60" as="geometry" />
        </mxCell>
        <mxCell id="dGRvfFARYx4jsjMMNbVP-11" style="edgeStyle=orthogonalEdgeStyle;rounded=0;orthogonalLoop=1;jettySize=auto;html=1;entryX=0.5;entryY=1;entryDx=0;entryDy=0;" edge="1" parent="1" source="dGRvfFARYx4jsjMMNbVP-10" target="dGRvfFARYx4jsjMMNbVP-2">
          <mxGeometry relative="1" as="geometry" />
        </mxCell>
        <mxCell id="dGRvfFARYx4jsjMMNbVP-10" value="暗光、非均匀光场" style="rounded=0;whiteSpace=wrap;html=1;" vertex="1" parent="1">
          <mxGeometry x="192.5" y="410" width="115" height="60" as="geometry" />
        </mxCell>
        <mxCell id="dGRvfFARYx4jsjMMNbVP-13" style="edgeStyle=orthogonalEdgeStyle;rounded=0;orthogonalLoop=1;jettySize=auto;html=1;entryX=0.5;entryY=0;entryDx=0;entryDy=0;" edge="1" parent="1" source="dGRvfFARYx4jsjMMNbVP-12" target="dGRvfFARYx4jsjMMNbVP-3">
          <mxGeometry relative="1" as="geometry" />
        </mxCell>
        <mxCell id="dGRvfFARYx4jsjMMNbVP-12" value="预设目标（交互模式）" style="rounded=0;whiteSpace=wrap;html=1;" vertex="1" parent="1">
          <mxGeometry x="340" y="230" width="120" height="60" as="geometry" />
        </mxCell>
        <mxCell id="dGRvfFARYx4jsjMMNbVP-15" style="edgeStyle=orthogonalEdgeStyle;rounded=0;orthogonalLoop=1;jettySize=auto;html=1;entryX=0.5;entryY=1;entryDx=0;entryDy=0;" edge="1" parent="1" source="dGRvfFARYx4jsjMMNbVP-14" target="dGRvfFARYx4jsjMMNbVP-3">
          <mxGeometry relative="1" as="geometry" />
        </mxCell>
        <mxCell id="dGRvfFARYx4jsjMMNbVP-14" value="自识别目标（全自动模式）" style="rounded=0;whiteSpace=wrap;html=1;" vertex="1" parent="1">
          <mxGeometry x="340" y="410" width="120" height="60" as="geometry" />
        </mxCell>
        <mxCell id="dGRvfFARYx4jsjMMNbVP-17" style="edgeStyle=orthogonalEdgeStyle;rounded=0;orthogonalLoop=1;jettySize=auto;html=1;entryX=0;entryY=0.5;entryDx=0;entryDy=0;" edge="1" parent="1" source="dGRvfFARYx4jsjMMNbVP-16" target="dGRvfFARYx4jsjMMNbVP-1">
          <mxGeometry relative="1" as="geometry" />
        </mxCell>
        <mxCell id="dGRvfFARYx4jsjMMNbVP-16" value="分析任务开始" style="ellipse;whiteSpace=wrap;html=1;" vertex="1" parent="1">
          <mxGeometry x="-130" y="310" width="120" height="80" as="geometry" />
        </mxCell>
        <mxCell id="dGRvfFARYx4jsjMMNbVP-21" style="edgeStyle=orthogonalEdgeStyle;rounded=0;orthogonalLoop=1;jettySize=auto;html=1;entryX=0.5;entryY=1;entryDx=0;entryDy=0;" edge="1" parent="1" source="dGRvfFARYx4jsjMMNbVP-20" target="dGRvfFARYx4jsjMMNbVP-4">
          <mxGeometry relative="1" as="geometry" />
        </mxCell>
        <mxCell id="dGRvfFARYx4jsjMMNbVP-20" value="基于运动规律分析目标反复运动轨迹图" style="rounded=0;whiteSpace=wrap;html=1;" vertex="1" parent="1">
          <mxGeometry x="510" y="410" width="120" height="60" as="geometry" />
        </mxCell>
        <mxCell id="dGRvfFARYx4jsjMMNbVP-22" value="分析任务完毕&amp;amp;&amp;amp;结果上传" style="ellipse;whiteSpace=wrap;html=1;" vertex="1" parent="1">
          <mxGeometry x="670" y="310" width="120" height="80" as="geometry" />
        </mxCell>
        <mxCell id="dGRvfFARYx4jsjMMNbVP-24" style="edgeStyle=orthogonalEdgeStyle;rounded=0;orthogonalLoop=1;jettySize=auto;html=1;entryX=0.5;entryY=1;entryDx=0;entryDy=0;" edge="1" parent="1" source="dGRvfFARYx4jsjMMNbVP-23" target="dGRvfFARYx4jsjMMNbVP-1">
          <mxGeometry relative="1" as="geometry" />
        </mxCell>
        <mxCell id="dGRvfFARYx4jsjMMNbVP-23" value="视频解码转换" style="rounded=0;whiteSpace=wrap;html=1;" vertex="1" parent="1">
          <mxGeometry x="32.5" y="410" width="115" height="60" as="geometry" />
        </mxCell>
      </root>
    </mxGraphModel>
  </diagram>
</mxfile>
